<svg width="40" height="40" fill="none" xmlns="http://www.w3.org/2000/svg">
    <rect width="40" height="40" rx="10" fill="#8000FF"/>
    <path fill-rule="evenodd" clip-rule="evenodd"
          d="M20.675 9.933v3.328h9.163a2.708 2.708 0 0 1 2.7 2.702v3.414h3.669c.325 0 .593.265.593.594v6.92a.595.595 0 0 1-.593.594h-3.67v3.413a2.708 2.708 0 0 1-2.699 2.702H9.878a2.708 2.708 0 0 1-2.7-2.702v-3.413H3.794a.593.593 0 0 1-.593-.592v-6.922c0-.326.265-.595.593-.595H7.18v-3.41a2.708 2.708 0 0 1 2.698-2.702h9.163V9.933a2.63 2.63 0 0 1-1.81-2.502 2.628 2.628 0 1 1 5.256 0c0 1.168-.76 2.157-1.81 2.502ZM14.42 26.628h11.16c.543 0 .989.446.989.99v.466a.994.994 0 0 1-.99.991H14.42a.994.994 0 0 1-.99-.99v-.466c0-.548.446-.991.99-.991Zm10.3-8.8a2.662 2.662 0 0 1 0 5.323 2.657 2.657 0 0 1-2.657-2.66 2.658 2.658 0 0 1 2.657-2.664Zm-9.439 0a2.66 2.66 0 0 1 2.658 2.663 2.659 2.659 0 1 1-5.315 0 2.66 2.66 0 0 1 2.658-2.664Z"
          fill="#fff"/>
</svg>