<svg width="180" height="50" fill="none" xmlns="http://www.w3.org/2000/svg">
    <rect x="2" y="1" width="48" height="48" rx="10" fill="#fff"/>
    <path fill-rule="evenodd" clip-rule="evenodd"
          d="M26.81 12.92v3.993h10.996a3.25 3.25 0 0 1 3.239 3.243v4.096h4.403c.39 0 .712.319.712.713v8.304c0 .39-.318.713-.712.713h-4.403v4.096a3.25 3.25 0 0 1-3.239 3.242H13.853a3.25 3.25 0 0 1-3.239-3.242v-4.096H6.552a.711.711 0 0 1-.712-.71v-8.307c0-.391.318-.713.712-.713h4.062v-4.093a3.25 3.25 0 0 1 3.239-3.242h10.995v-3.998a3.156 3.156 0 0 1-2.172-3.002 3.154 3.154 0 1 1 6.307 0 3.16 3.16 0 0 1-2.172 3.002Zm-7.507 20.033h13.39c.654 0 1.189.536 1.189 1.19v.558c0 .654-.535 1.19-1.188 1.19H19.303a1.192 1.192 0 0 1-1.188-1.19v-.558c0-.657.535-1.19 1.188-1.19Zm12.36-10.56a3.194 3.194 0 0 1 3.193 3.196 3.191 3.191 0 1 1-6.382 0 3.189 3.189 0 0 1 3.19-3.196Zm-11.326 0a3.191 3.191 0 0 1 3.189 3.196 3.19 3.19 0 1 1-6.379 0 3.191 3.191 0 0 1 3.19-3.196Z"
          fill="#8000FF"/>
    <path d="M64 29.87V19.53L66.53 17h7.524l2.486 2.486v2.354h-2.992v-1.254l-1.034-1.034h-4.4l-1.122 1.122v8.052l1.122 1.122h4.4l1.034-1.034V27.56h2.992v2.354L74.054 32.4H66.53L64 29.87ZM78.636 17h2.992v6.446h6.512V17h2.992v15.4H88.14v-6.402h-6.512V32.4h-2.992V17Zm19.673 0h2.728l5.632 15.4h-3.036l-1.254-3.41h-5.412l-1.254 3.41h-3.036L98.31 17Zm3.41 9.526-2.046-5.852h-.044l-1.98 5.852h4.07Zm8.022-6.996h-4.598V17h12.188v2.53h-4.598V32.4h-2.992V19.53Zm9.35-2.53h9.658l2.2 2.2v4.312l-.88.902 1.562 1.584v4.026l-2.376 2.376h-10.164V17Zm8.118 6.446.792-.792v-2.376l-.77-.77h-5.214v3.938h5.192Zm.528 6.446.946-.946V26.79l-.946-.946h-5.72v4.048h5.72Zm5.872-.022V19.53l2.53-2.53h7.92l2.53 2.53v10.34l-2.53 2.53h-7.92l-2.53-2.53Zm8.866-.022 1.122-1.122v-8.052l-1.122-1.122h-4.752l-1.122 1.122v8.052l1.122 1.122h4.752Zm9.934-10.318h-4.598V17h12.188v2.53h-4.598V32.4h-2.992V19.53Z"
          fill="#CED3E0"/>
</svg>